<svg xmlns="http://www.w3.org/2000/svg" viewBox="0 0 500 500"><path d="M322.1 323.3c-10.9 0-20 7.5-22.7 17.7h-125l77.5-179.1L301.5 277h-25c-2.7-10.2-11.8-17.7-22.7-17.7-13 0-23.6 10.7-23.6 24.1 0 13.2 10.5 24.1 23.6 24.1 10.7 0 19.7-7.4 22.6-17.3h45L251.9 129l-93.3 215.9-4.1 9.3h145c2.9 10.1 11.9 17.3 22.6 17.3 12.9 0 23.6-10.7 23.6-24.1 0-13.2-10.5-24.1-23.6-24.1zm-68.3-29c-6 0-10.7-4.9-10.7-10.9s4.7-10.9 10.7-10.9 10.7 4.9 10.7 10.9-4.7 10.9-10.7 10.9zm68.3 64.1c-5.8 0-10.7-4.9-10.7-10.9s4.7-10.9 10.7-10.9c5.8 0 10.7 4.9 10.7 10.9s-4.6 10.9-10.7 10.9z" fill="#fff"/></svg>