<svg xmlns="http://www.w3.org/2000/svg" viewBox="0 0 512 512"><syle>.default_skill_icon0{fill:#97d4ac}.default_skill_icon1{opacity:.1;enable-background:new}.default_skill_icon2{fill:#fff}.default_skill_icon3{fill:#6ca87e}.default_skill_icon4{fill:#ffc433}.default_skill_icon5{fill:#f23466}</style><path class="default_skill_icon0" d="M286.8 231.9v-50.8h-61.5v51.1c0 9.3-5.5 17.7-13.9 21.8-34.6 16.6-58.5 52-58.5 92.9 0 57 46.8 103.5 103.8 103.1 56.6-.4 102.4-46.4 102.4-103.1 0-41-23.9-76.4-58.5-93-8.5-4-13.8-12.6-13.8-22z"/><path class="default_skill_icon1" d="M300.6 253.9c-8.5-4.1-13.8-12.6-13.8-22v-50.8h-39.7v50.8c0 9.4 5.4 18 13.8 22 34.6 16.6 58.5 52 58.5 93 0 50.1-35.8 91.9-83.2 101.2 6.8 1.3 13.6 2 20.5 1.9 56.6-.4 102.4-46.4 102.4-103.1 0-41-23.9-76.3-58.5-93z"/><circle class="default_skill_icon2" cx="256" cy="342.7" r="44.2"/><path class="default_skill_icon3" d="M302.7 185.1h-93.3c-4.3 0-7.9-3.5-7.9-7.9v-7.9c0-4.3 3.5-7.9 7.9-7.9h93.3c4.3 0 7.9 3.5 7.9 7.9v7.9c-.1 4.4-3.6 7.9-7.9 7.9z"/><circle class="default_skill_icon4" cx="255.5" cy="77.9" r="15.9"/><circle class="default_skill_icon4" cx="289.7" cy="120" r="10.3"/><circle class="default_skill_icon4" cx="233" cy="127.6" r="10.3"/><path class="default_skill_icon5" d="M146.3 304.9c-27.6-15.7-37.8-24.3-41.5-28.3 7.6.1 26.5 3.5 63.5 16.1 2.1-3.4 4.4-6.7 6.9-9.8-.5-.4-1-.7-1.6-.9-21.5-7.4-39.8-12.6-53-15.2-17.8-3.5-26.1-2.3-28.9 4.1-3 7 3.8 13.9 11 19.7 7.3 5.9 18.1 13.1 32.2 21.4 6.4 3.7 13.3 7.6 20.7 11.6.9-3.9 2-7.8 3.4-11.6-4.2-2.3-8.5-4.7-12.7-7.1zm258.2 86.3c-10.3-7.6-25.8-17.1-44.9-27.5-.5-.3-1.1-.5-1.7-.6-.6 3.9-1.5 7.9-2.5 11.7 32.3 17.7 46.9 28.8 51.9 34.1-5.5 0-18.7-1.7-49-11.3-3.5-1.1-7.1-2.3-10.6-3.4-1.8 3.6-3.9 7-6.1 10.4 6.8 2.3 13.2 4.4 19.4 6.2 15.6 4.8 28.3 7.8 37.5 9.1 3 .4 6.1.8 8.9.8 5.9 0 10.9-1.4 13-6 3.3-7.9-5.7-16-15.9-23.5zm5.2-108.7c-3.9 3.8-14.4 12-42.6 26.7-4.2 2.2-8.5 4.4-12.8 6.5 1.2 3.8 2.2 7.7 3 11.7 7.5-3.7 14.5-7.2 21-10.7 14.4-7.7 25.5-14.5 33-20.1 7.4-5.5 14.5-12.1 11.7-19.2-2.5-6.5-10.9-8-28.7-5.2-13.2 2.1-31.7 6.6-53.4 13.1-.6.2-1.2.4-1.7.8 2.4 3.2 4.5 6.6 6.5 10.1 37.4-11.2 56.4-13.9 64-13.7zm-258 111c-30.6 8.4-43.9 9.5-49.4 9.3 5.2-5.1 20.3-15.6 53.4-32.1-.9-3.9-1.6-7.8-2.1-11.8-.6.1-1.2.3-1.8.5-19.6 9.7-35.5 18.6-46.1 25.8-10.5 7.2-19.8 14.9-16.7 22.8 2 5.2 7.8 6.6 14.4 6.6 2.4 0 4.9-.2 7.3-.4 9.3-1 22.1-3.5 37.9-7.7 6.3-1.6 12.9-3.5 19.8-5.5-2.1-3.4-4-7-5.8-10.6-3.6 1.1-7.2 2.1-10.9 3.1z"/><path class="default_skill_icon5" d="M271.2 365c31.6-12.5 61.3-25.5 86-37.6-.8-3.9-1.7-7.8-3-11.7-26.4 13-58.8 27.2-93 40.6-1.9.7-3.7 1.5-5.6 2.2-1.8-.8-3.7-1.6-5.5-2.4-33.5-14.7-65.3-30.1-91.1-44.1-1.4 3.8-2.5 7.6-3.4 11.6 24.2 13.1 53.3 27.2 84.4 40.9-27.8 10.4-54.4 19.3-77.3 26 1.7 3.6 3.6 7.2 5.8 10.6 25.8-7.6 55.8-17.9 87.1-29.9 30.9 13.2 60.5 24.7 86.1 33.3 2.2-3.3 4.3-6.8 6.1-10.4-22.9-7.6-49.2-17.6-76.6-29.1z"/></svg>