<svg xmlns="http://www.w3.org/2000/svg" viewBox="0 0 512.001 512.001"><path d="M296.578 224.216v-67.087h-81.161v67.442c0 12.324-7.204 23.398-18.311 28.741-45.639 21.952-77.14 68.624-77.14 122.656 0 75.221 61.769 136.547 136.988 136.029 74.688-.514 135.076-61.22 135.076-136.028 0-54.065-31.541-100.762-77.226-122.698-11.161-5.358-18.226-16.676-18.226-29.055z" fill="#97d4ac"/><path d="M314.803 253.271c-11.16-5.358-18.226-16.676-18.226-29.056v-67.087h-52.345v67.087c0 12.38 7.065 23.697 18.226 29.056 45.685 21.935 77.226 68.632 77.226 122.698 0 66.154-47.226 121.268-109.8 133.495a135.446 135.446 0 0 0 27.07 2.534c74.688-.514 135.076-61.22 135.076-136.028-.001-54.066-31.543-100.763-77.227-122.699z" opacity=".1"/><circle cx="256" cy="370.451" r="58.381" fill="#fff"/><path d="M317.565 162.434H194.43c-5.725 0-10.366-4.641-10.366-10.366v-10.392c0-5.725 4.641-10.366 10.366-10.366h123.135c5.725 0 10.366 4.641 10.366 10.366v10.392c0 5.725-4.641 10.366-10.366 10.366z" fill="#6ca87e"/><g fill="#ffc433"><circle cx="255.305" cy="20.975" r="20.975"/><circle cx="300.512" cy="76.527" r="13.548"/><circle cx="225.607" cy="86.629" r="13.548"/></g><g fill="#f23466"><path d="M111.286 320.542c-36.41-20.76-49.866-32.113-54.793-37.376 9.963.113 34.944 4.59 83.825 21.233a136.31 136.31 0 0 1 9.08-12.932 7.78 7.78 0 0 0-2.135-1.13c-28.388-9.726-52.562-16.676-69.909-20.098-23.423-4.618-34.483-3.057-38.176 5.388-4.02 9.193 5.07 18.279 14.491 25.954 9.585 7.81 23.883 17.291 42.495 28.18 8.448 4.944 17.604 10.069 27.344 15.32a134.932 134.932 0 0 1 4.504-15.246 908.095 908.095 0 0 1-16.726-9.293zm340.686 113.851c-13.559-10.014-34.069-22.573-59.314-36.324a7.746 7.746 0 0 0-2.292-.813 135.06 135.06 0 0 1-3.36 15.446c42.659 23.347 61.877 37.96 68.511 44.962-7.216-.046-24.692-2.223-64.632-14.853a890.84 890.84 0 0 1-13.938-4.542 135.92 135.92 0 0 1-8.107 13.685c8.917 3.012 17.458 5.765 25.543 8.221 20.63 6.271 37.298 10.332 49.539 12.068 3.953.56 7.992.991 11.779.991 7.738 0 14.416-1.801 17.115-7.973 4.497-10.277-7.36-20.909-20.844-30.868zm6.787-143.363c-5.127 5.067-19.019 15.884-56.212 35.205a923.834 923.834 0 0 1-16.889 8.543 135.027 135.027 0 0 1 3.915 15.407c9.865-4.833 19.148-9.565 27.727-14.143 19.024-10.155 33.679-19.069 43.562-26.498 9.715-7.302 19.153-16.026 15.494-25.37-3.358-8.578-14.331-10.573-37.876-6.886-17.432 2.731-41.813 8.714-70.511 17.301a7.72 7.72 0 0 0-2.193 1.057 136.188 136.188 0 0 1 8.581 13.267c49.38-14.674 74.442-18.177 84.402-17.883zM118.382 437.485c-40.409 11.063-57.954 12.547-65.163 12.316 6.915-6.749 26.75-20.637 70.447-42.364a134.19 134.19 0 0 1-2.759-15.559 7.74 7.74 0 0 0-2.326.723c-25.827 12.776-46.867 24.55-60.845 34.045-13.897 9.439-26.193 19.617-22.097 30.072 2.682 6.851 10.307 8.677 18.95 8.676 3.144 0 6.424-.24 9.649-.571 12.3-1.256 29.114-4.661 49.974-10.121 8.266-2.163 17.01-4.61 26.147-7.307a136.046 136.046 0 0 1-7.591-13.984 915.94 915.94 0 0 1-14.386 4.074z"/><path d="M276.026 399.859c41.745-16.534 80.877-33.669 113.547-49.675a135.027 135.027 0 0 0-3.915-15.407c-34.815 17.183-77.61 35.866-122.676 53.51-2.467.966-4.929 1.922-7.389 2.873a1844.465 1844.465 0 0 1-7.273-3.161c-44.262-19.355-86.225-39.66-120.31-58.164a135.055 135.055 0 0 0-4.504 15.246c31.981 17.242 70.342 35.855 111.328 53.972-36.631 13.685-71.756 25.51-102.068 34.355a136.046 136.046 0 0 0 7.591 13.984c34.059-10.053 73.651-23.635 114.906-39.444 40.727 17.462 79.87 32.618 113.579 44.006a135.844 135.844 0 0 0 8.107-13.685c-30.007-10.034-64.746-23.258-100.923-38.41z"/></g></svg>